<svg xmlns="http://www.w3.org/2000/svg" viewBox="0 0 320 320">
  <style>@media (prefers-color-scheme: dark){.circle{fill:#f2f2f2}.way{fill:#14315b}}</style>
  <path class="circle" d="M160,318h0C72.74,318,2,247.26,2,160h0C2,72.74,72.74,2,160,2h0c87.26,0,158,70.74,158,158h0c0,87.26-70.74,158-158,158h0Z" fill="#14315b"/>
  <path class="way" d="M228.36,153.65c14.39,6.71,20.62,23.81,13.9,38.2l-24,51.46c-6.71,14.39-23.81,20.61-38.2,13.9-14.39-6.71-20.62-23.82-13.9-38.2l23.99-51.46c6.71-14.39,23.82-20.61,38.2-13.9h0M182.43,62.84h0c-14.39-6.71-31.49-.48-38.2,13.9l-66.34,142.26c-6.71,14.39-.48,31.49,13.9,38.2,14.39,6.71,31.49.48,38.2-13.9l66.34-142.26c6.71-14.39.48-31.5-13.9-38.2" fill="#fff"/>
</svg>