<?xml version="1.0" encoding="utf-8"?>
<!-- Generator: Adobe Illustrator 19.2.1, SVG Export Plug-In . SVG Version: 6.00 Build 0)  -->
<svg version="1.1" id="layer" xmlns="http://www.w3.org/2000/svg" xmlns:xlink="http://www.w3.org/1999/xlink" x="0px" y="0px"
	 viewBox="0 0 652 652" style="enable-background:new 0 0 652 652;" xml:space="preserve">
<style type="text/css">
	.st0{fill-rule:evenodd;clip-rule:evenodd;fill:#E4312A;}
	.st1{fill:#E4312A;}
	.st2{fill:#1A171B;}
</style>
<g>
	<path class="st0" d="M110.3,307.8c0-1.3-1.8-2.3-3.6-2.3c-12.1,0-24.9,18.9-24.9,29.6c0,4.1,0.8,5.8,4.4,5.8
		C93.4,341,110.3,311.5,110.3,307.8 M68.1,341.6c0-18.5,25.6-45,43.6-45c1.7,0,3.3,0.5,5,0.6c0.6-0.7,1.1-1.6,1.7-2.3
		c0.6-0.9,1.3-1.7,2.1-2.4c0.5-0.4,1.2-0.6,2-0.6c0.7-0.1,1.6-0.1,2.4-0.1c1.6,0,3.4,0.2,4.4,1.1c-1.5,5-5.6,14.6-9.2,23.8
		c-3.6,9.2-6.8,17.8-6.8,20.4c0,2.3,0.8,3.2,1.8,3.2c1.2,0,2.8-1.5,4.5-3.4c1.7-1.9,3.2-4.1,4.2-5.1l3.8,2.7c-1.2,1.7-2.5,3.5-4,5.5
		c-1.5,2-3.2,4.1-5,6c-3.6,3.8-7.8,7.1-11.8,7.1c-4.3,0-7-2.4-7-6.9c0-2.6,1.1-6.6,2.4-10.5c0.8-2.4,1.6-4.7,2.3-6.7
		c-5.7,9.1-17.3,24.2-27.4,24.2C70.1,353.1,68.1,348.2,68.1,341.6"/>
	<path class="st0" d="M226.7,307.8c0-1.3-1.8-2.3-3.6-2.3c-12.1,0-24.9,18.9-24.9,29.6c0,4.1,0.8,5.8,4.4,5.8
		C209.8,341,226.7,311.5,226.7,307.8 M184.5,341.6c0-18.5,25.6-45,43.6-45c1.7,0,3.3,0.5,5,0.6c0.6-0.7,1.1-1.6,1.7-2.3
		c0.6-0.9,1.3-1.7,2-2.4c0.5-0.4,1.2-0.6,2-0.6c0.7-0.1,1.6-0.1,2.4-0.1c1.6,0,3.4,0.2,4.4,1.1c-1.5,5-5.6,14.6-9.2,23.8
		c-3.6,9.2-6.8,17.8-6.8,20.4c0,2.3,0.8,3.2,1.8,3.2c1.2,0,2.8-1.5,4.5-3.4c1.7-1.9,3.2-4.1,4.2-5.1l3.8,2.7c-1.2,1.7-2.5,3.5-4,5.5
		c-1.5,2-3.2,4.1-5,6c-3.6,3.8-7.8,7.1-11.8,7.1c-4.3,0-7-2.4-7-6.9c0-2.6,1.1-6.6,2.4-10.5c0.8-2.4,1.6-4.7,2.3-6.7
		c-5.7,9.1-17.3,24.2-27.4,24.2C186.5,353.1,184.5,348.2,184.5,341.6"/>
	<path class="st1" d="M63.1,273.1c0-2.8-1.4-3.9-10.4-3.9c-0.9,0-1.1-0.8-1.1-1.2c0-0.3,0.2-1.4,0.6-2.4c0.2-0.5,0.4-1,0.7-1.5
		c0.2-0.4,0.6-0.8,1.2-0.8c7.3,0,13.6,0.6,19.8,0.6c6.3,0,12-0.6,17.2-0.6c0.5,0,1.1,0.2,1.1,1c0,0.6-0.2,1.7-0.5,2.7
		c-0.1,0.5-0.3,1-0.5,1.4c-0.1,0.2-0.2,0.4-0.3,0.5c-0.1,0.1-0.3,0.3-0.6,0.3c-7.1,0.1-9,0.6-10.8,7.2L68.2,319
		c-1.5,5.9-3.5,14.7-6,23.2c-2.4,8.5-5.4,16.8-8.8,21.9c-6.5,9.5-14,12.3-20.4,12.3c-5.1,0-11.1-1.9-11.1-8.3c0-5.5,2-9,8-9
		c5.1,0,6.1,2.5,6.5,4.9c0.1,0.6,0.2,1.1,0.2,1.7c0.1,0.5,0.2,1,0.4,1.3c0.3,0.7,0.8,1.1,2.2,1.1c2.5,0,3.3-2,4-6.9
		c0.7-4.7,1.1-11.7,3.4-20.4L58.1,296c0.4-1.7,1-3.9,1.6-6.2c0.3-1.4,0.7-2.8,1-4.1C62.1,280.5,63.1,275.6,63.1,273.1"/>
	<path class="st1" d="M143.6,319.7c3.1-5.5,6.9-10.7,9.7-14.8h-14.2c-3.1,0-4.5,1.1-5.2,2.2c-0.7,1.2-0.7,2.5-0.7,3.2
		c0,0.4,0.2,0.7,0.5,0.9c0.2,0.2,0.4,0.3,0.7,0.4c0.3,0.2,0.6,0.3,0.9,0.5c1.2,0.8,2.5,2,2.5,4.7c0,3.2-2.5,6.3-5.9,6.3
		c-4.1,0-6.2-2.6-6.2-6.5c0-6.2,8.3-23.1,15.9-23.1c5,0,10,0.7,15.1,0.7c2.1,0,4.2-0.6,6.4-0.7c0.2,0,0.5,0,0.8,0
		c0.3,0,0.7,0.1,1,0.2c0.6,0.2,1.4,0.6,1.4,1.5c0,0.3-0.4,0.9-0.8,1.5c-0.5,0.7-1.1,1.6-2,2.7c-1.6,2.2-3.8,5.1-5.9,8.5
		c-4.3,6.7-8.5,15-8.5,21.9c0,6.1,3,11.3,9.4,11.3c12.1,0,23-16.1,23-27.4c0-3.9-1.4-5.5-2.8-6.8c-0.4-0.3-0.7-0.6-1.1-0.9
		c-0.4-0.3-0.7-0.6-1-1c-0.6-0.8-1-1.7-1-3c0-3.5,1.4-8.5,7.7-8.5c6.4,0,8,5.9,8,10.9c0,17-18.1,48.8-37.1,48.8
		c-10.3,0-16.6-5.4-16.6-15.6C137.6,331.8,140.3,325.6,143.6,319.7"/>
	<polygon class="st1" points="249,291.3 249.6,291.3 249.6,287.1 251.2,287.1 251.2,286.5 247.4,286.5 247.4,287.1 249,287.1 	"/>
	<polygon class="st1" points="251.7,291.3 252.3,291.3 252.3,287.3 252.3,287.3 253.8,291.3 254.4,291.3 255.8,287.3 255.8,287.3 
		255.8,291.3 256.4,291.3 256.4,286.5 255.6,286.5 254.1,290.5 252.6,286.5 251.7,286.5 	"/>
	<path class="st2" d="M336.5,310.7l-12.9,41.2h-13.8l10.7-34.4c0.5-1.5,1-3.5,1.2-4.5c0.4-2.4-0.1-3.6-1.9-3.6
		c-2.7,0-6.5,2.2-11,6.4c-7.2,6.7-10.4,11.9-13.8,22.7l-4.2,13.4H277l10.8-34.4c0.5-1.5,0.9-3.5,1.1-4.5c0.4-2.4-0.1-3.6-1.8-3.6
		c-2.8,0-6.6,2.2-11.1,6.4c-2.9,2.7-6,6.1-7.5,8.5c-0.9,1.3-1.7,2.9-2.7,4.9c-1.6,3.2-2,4.3-3.6,9.4l-4.2,13.4h-13.8l16.7-53.2
		l14.3-1.5l-5.4,15.1c8.9-10.8,17.1-15.8,25.8-15.8c7,0,10.1,3.5,9.1,10.1c-0.1,0.8-0.5,2.3-0.9,4.2c9-10,16.4-14.3,24.6-14.3
		c7.4,0,10.1,3.4,8.9,11.2C337,308.7,336.8,309.7,336.5,310.7"/>
	<path class="st2" d="M376.3,351.8h-12.4l4.9-15.3c-5.5,6.4-8,8.7-12.9,11.9c-4.7,3.1-9.5,4.9-13.2,4.9c-6.3,0-9.5-7.1-8-17
		c2.4-15,11-28.8,22.3-35.6c5.2-3,9.8-4.2,17.4-4.2c5,0,8.1,0.3,18.6,2.1L376.3,351.8z M372.1,306.2c-9.5,0-19.8,12.3-22,26.2
		c-0.8,4.9,0,7.8,2.4,7.8c2.1,0,6.3-3,10.5-7.4c5.5-5.9,9.5-12.4,11.4-18.4l2.4-7.5C374.5,306.4,373.7,306.2,372.1,306.2"/>
	<path class="st2" d="M445.6,307.3h-8c0.9,2.7,1,4.1,0.5,7c-2.1,13.1-14,23.5-26.8,23.5c-2,0-3.1-0.1-5.8-0.6c-2.5,2.3-4.5,5-4.7,6
		c-0.1,0.5,0.1,0.9,0.5,1.3c0.6,0.6,0.9,0.7,5.3,0.7h13.8c8.9,0,13.6,4.9,12.3,12.9c-1.8,11.6-17.6,21.8-33.9,21.8
		c-11.8,0-20.3-5.7-19.2-12.6c0.8-4.9,5.2-9.5,13.5-14c-4.9-0.5-6.9-2.3-6.4-5.6c0.5-3,3.6-6.5,11.7-13.3c-2.2-2.2-3.1-3.4-3.8-4.6
		c-1.4-2.4-1.8-5.7-1.2-9.3c2.2-13.8,14.4-24.3,28.2-24.3c3.4,0,5.4,0.3,9.5,1.7h10.2l8.2-0.7L445.6,307.3z M411.5,355.4h-8.8
		c-4.3,3.5-7.6,7.5-7.9,9.6c-0.4,2.5,3.1,4.4,8.2,4.4c3.5,0,7.9-1.4,11-3.6c2.3-1.6,4.4-4.3,4.7-6.1
		C419.2,356.6,417.2,355.4,411.5,355.4 M419.7,305.2c-2.2,0-4.5,1.4-6.9,4.3c-2.6,3-4.3,6.4-4.8,10c-0.8,5.1,0.9,8.7,4.2,8.7
		c2.2,0,5-1.7,7.3-4.4c2.3-2.8,3.9-6.3,4.4-9.5C424.6,308.9,423,305.2,419.7,305.2"/>
	<path class="st2" d="M481.2,351.8h-12.4l4.9-15.3c-5.5,6.4-8,8.7-12.9,11.9c-4.7,3.1-9.5,4.9-13.2,4.9c-6.3,0-9.5-7.1-8-17
		c2.4-15,11-28.8,22.3-35.6c5.2-3,9.8-4.2,17.4-4.2c5,0,8.1,0.3,18.6,2.1L481.2,351.8z M477,306.2c-9.5,0-19.8,12.3-22,26.2
		c-0.8,4.9,0,7.8,2.4,7.8c2.1,0,6.3-3,10.5-7.4c5.5-5.9,9.5-12.4,11.4-18.4l2.4-7.5C479.4,306.4,478.6,306.2,477,306.2"/>
	<polygon class="st2" points="543.7,305.3 510,340.6 535.5,340.6 532,351.8 488.3,351.8 490.7,344.3 524.3,309.1 500.9,309.1 
		504.4,297.9 546,297.9 	"/>
</g>
<g>
	<path class="st2" d="M551,351.8h-13.8l16.7-53.2l14.3-1.5L551,351.8z M573.3,279.7c-1.5,4.4-5.7,7.5-9.9,7.5
		c-3.2,0-5.3-3.7-4.6-8.2c0.1-0.5,0.3-0.9,0.5-1.4c1.6-4.4,5.7-7.5,9.9-7.5c3.2,0,5.2,3.8,4.5,8.5
		C573.6,278.9,573.5,279.2,573.3,279.7"/>
	<path class="st2" d="M620.8,310.7l-12.9,41.2h-13.8l10.8-34.4c0.5-1.5,0.9-3.5,1.1-4.5c0.4-2.4-0.1-3.6-1.8-3.6
		c-2.8,0-6.6,2.2-11.1,6.4c-2.9,2.7-6,6.1-7.5,8.5c-0.9,1.3-1.7,2.9-2.7,4.9c-1.6,3.2-2,4.3-3.6,9.4l-4.2,13.4h-13.8l16.7-53.2
		l14.3-1.5l-5.4,15.1c8.9-10.8,17.1-15.8,25.8-15.8c7.4,0,10.1,3.4,8.9,11.2C621.4,308.7,621.1,309.7,620.8,310.7"/>
</g>
</svg>
